<svg width="789" height="93" viewBox="0 0 789 93" fill="none" xmlns="http://www.w3.org/2000/svg">
<path d="M0 90.6681V2.51855H28.7031C35.5551 2.51855 41.1954 3.69388 45.6242 6.04454C50.1364 8.31124 53.4371 11.3755 55.5261 15.2373C57.6987 19.0991 58.785 23.5065 58.785 28.4597C58.785 33.245 57.6987 37.6105 55.5261 41.5562C53.4371 45.418 50.1782 48.5242 45.7495 50.8749C41.3208 53.1416 35.6386 54.2749 28.7031 54.2749H10.5287V90.6681H0ZM10.5287 45.334H28.4524C35.4715 45.334 40.4852 43.8229 43.4934 40.8006C46.5015 37.6944 48.0056 33.5808 48.0056 28.4597C48.0056 23.0028 46.5015 18.8052 43.4934 15.8669C40.4852 12.8446 35.4715 11.3335 28.4524 11.3335H10.5287V45.334Z" fill="#F8F7F3"/>
<path d="M91.3293 90.6681V27.2004H100.855L101.357 38.2821C103.362 34.3363 106.203 31.2721 109.88 29.0893C113.64 26.8226 117.902 25.6893 122.665 25.6893C127.595 25.6893 131.856 26.6967 135.449 28.7116C139.042 30.6425 141.842 33.6227 143.847 37.6524C145.853 41.5982 146.855 46.6353 146.855 52.7638V90.6681H136.327V53.8971C136.327 47.5168 134.906 42.7315 132.065 39.5414C129.308 36.3512 125.38 34.7561 120.283 34.7561C116.774 34.7561 113.64 35.6376 110.882 37.4006C108.125 39.0796 105.911 41.5562 104.239 44.8303C102.652 48.0205 101.858 52.0082 101.858 56.7935V90.6681H91.3293Z" fill="#F8F7F3"/>
<path d="M157.453 90.6681V27.2004H166.979L167.48 38.2821C169.486 34.3363 172.327 31.2721 176.004 29.0893C179.764 26.8226 184.026 25.6893 188.788 25.6893C193.719 25.6893 197.98 26.6967 201.573 28.7116C205.166 30.6425 207.966 33.6227 209.971 37.6524C211.977 41.5982 212.979 46.6353 212.979 52.7638V90.6681H202.451V53.8971C202.451 47.5168 201.03 42.7315 198.189 39.5414C195.432 36.3512 191.504 34.7561 186.407 34.7561C182.897 34.7561 179.764 35.6376 177.006 37.4006C174.249 39.0796 172.035 41.5562 170.363 44.8303C168.776 48.0205 167.982 52.0082 167.982 56.7935V90.6681H157.453Z" fill="#F8F7F3"/>
<path d="M244.133 92.1792C239.036 92.1792 234.774 91.2977 231.348 89.5347C227.922 87.6878 225.374 85.2952 223.702 82.3568C222.031 79.3346 221.196 76.0604 221.196 72.5345C221.196 68.2529 222.282 64.643 224.455 61.7047C226.711 58.6824 229.844 56.4157 233.855 54.9045C237.95 53.3095 242.754 52.5119 248.269 52.5119H264.94C264.94 48.5662 264.313 45.2921 263.06 42.6896C261.89 40.0031 260.135 37.9882 257.795 36.645C255.539 35.3018 252.698 34.6302 249.272 34.6302C245.261 34.6302 241.793 35.6376 238.869 37.6524C235.944 39.6673 234.148 42.6476 233.479 46.5933H222.7C223.201 42.0599 224.705 38.2821 227.212 35.2598C229.802 32.1536 233.061 29.8029 236.989 28.2078C240.916 26.5288 245.01 25.6893 249.272 25.6893C255.121 25.6893 259.968 26.7807 263.812 28.9634C267.739 31.0622 270.664 34.0425 272.586 37.9043C274.507 41.6821 275.468 46.1736 275.468 51.3786V90.6681H266.068L265.441 79.4605C264.605 81.2235 263.519 82.9025 262.182 84.4976C260.929 86.0087 259.425 87.352 257.67 88.5273C255.999 89.6187 254.035 90.5002 251.779 91.1718C249.523 91.8434 246.974 92.1792 244.133 92.1792ZM245.763 83.2383C248.687 83.2383 251.319 82.6507 253.659 81.4753C256.082 80.216 258.13 78.537 259.801 76.4382C261.472 74.2555 262.725 71.8628 263.561 69.2603C264.48 66.6578 264.94 63.9294 264.94 61.075V60.6972H249.147C245.052 60.6972 241.752 61.2009 239.245 62.2084C236.738 63.1318 234.941 64.4751 233.855 66.2381C232.769 67.9171 232.226 69.848 232.226 72.0307C232.226 74.2974 232.727 76.2703 233.73 77.9494C234.816 79.6284 236.362 80.9296 238.367 81.8531C240.456 82.7766 242.921 83.2383 245.763 83.2383Z" fill="#F8F7F3"/>
<path d="M314.359 92.1792C308.426 92.1792 303.078 90.794 298.315 88.0236C293.636 85.2532 289.959 81.3914 287.285 76.4382C284.611 71.4011 283.274 65.6084 283.274 59.0602C283.274 52.344 284.611 46.5094 287.285 41.5562C289.959 36.603 293.636 32.7412 298.315 29.9708C303.078 27.1165 308.426 25.6893 314.359 25.6893C321.879 25.6893 328.147 27.6622 333.16 31.6079C338.174 35.4697 341.349 40.6747 342.686 47.2229H331.907C331.071 43.2772 329.024 40.213 325.765 38.0302C322.506 35.8475 318.662 34.7561 314.234 34.7561C310.641 34.7561 307.298 35.6796 304.206 37.5265C301.198 39.2895 298.733 41.976 296.811 45.5859C294.973 49.1958 294.054 53.6453 294.054 58.9342C294.054 62.88 294.597 66.406 295.683 69.5122C296.77 72.5345 298.232 75.053 300.07 77.0679C301.908 79.0827 304.039 80.6358 306.463 81.7272C308.969 82.7346 311.56 83.2383 314.234 83.2383C317.242 83.2383 319.958 82.7766 322.381 81.8531C324.804 80.8457 326.851 79.3765 328.523 77.4456C330.194 75.5147 331.322 73.248 331.907 70.6455H342.686C341.349 77.0259 338.132 82.2309 333.035 86.2606C328.021 90.2063 321.796 92.1792 314.359 92.1792Z" fill="#F8F7F3"/>
<path d="M351.786 90.6681V0H362.314V90.6681H351.786Z" fill="#F8F7F3"/>
<path d="M401.545 92.1792C395.696 92.1792 390.473 90.794 385.877 88.0236C381.281 85.2532 377.688 81.3914 375.098 76.4382C372.507 71.4011 371.212 65.5664 371.212 58.9342C371.212 52.2181 372.466 46.3834 374.973 41.4303C377.563 36.4771 381.156 32.6153 385.752 29.8449C390.431 27.0745 395.779 25.6893 401.796 25.6893C407.979 25.6893 413.243 27.0745 417.589 29.8449C421.934 32.6153 425.234 36.2672 427.49 40.8006C429.83 45.2501 431 50.1613 431 55.5342C431 56.3737 431 57.2552 431 58.1787C431 59.1021 430.958 60.1515 430.875 61.3269H379.109V53.1416H420.597C420.346 47.3489 418.424 42.8155 414.831 39.5414C411.321 36.2672 406.893 34.6302 401.545 34.6302C398.035 34.6302 394.735 35.4697 391.643 37.1487C388.551 38.7438 386.086 41.1364 384.248 44.3266C382.409 47.4328 381.49 51.3366 381.49 56.0379V59.5639C381.49 64.7689 382.409 69.1344 384.248 72.6604C386.17 76.1864 388.635 78.8308 391.643 80.5938C394.735 82.3568 398.035 83.2383 401.545 83.2383C405.974 83.2383 409.608 82.2729 412.45 80.342C415.374 78.3271 417.505 75.5987 418.842 72.1567H429.245C428.159 76.0184 426.362 79.4605 423.856 82.4828C421.349 85.4211 418.215 87.7717 414.455 89.5347C410.778 91.2977 406.475 92.1792 401.545 92.1792Z" fill="#F8F7F3"/>
<path d="M67.0147 16.8669C66.5789 16.8669 66.2962 16.4055 66.4924 16.0146L72.8121 3.42557C73.0283 2.99487 73.6404 2.99487 73.8566 3.42557L80.1763 16.0146C80.3725 16.4055 80.0897 16.8669 79.654 16.8669H67.0147Z" fill="#F8F7F3"/>
<path d="M68.07 90.6681V27.2004H78.5986V90.6681H68.07Z" fill="#F8F7F3"/>
<path d="M463.788 90.7049V40.5205H455V36.3115H463.788V25.1954C463.788 22.5332 464.216 20.3028 465.074 18.5041C465.931 16.7054 467.253 15.3383 469.039 14.403C470.897 13.4677 473.254 13 476.112 13H481.149V17.209H476.541C473.754 17.209 471.718 17.8206 470.432 19.0437C469.218 20.2669 468.61 22.3893 468.61 25.4112V36.3115H492.938V90.7049H488.115V40.5205H468.61V90.7049H463.788ZM490.58 22.2814C489.651 22.2814 488.794 21.9217 488.008 21.2022C487.293 20.4107 486.936 19.4754 486.936 18.3962C486.936 17.3169 487.293 16.4536 488.008 15.806C488.794 15.0865 489.687 14.7268 490.687 14.7268C491.687 14.7268 492.545 15.0865 493.259 15.806C493.974 16.4536 494.331 17.3169 494.331 18.3962C494.331 19.4754 493.974 20.4107 493.259 21.2022C492.545 21.9217 491.652 22.2814 490.58 22.2814Z" fill="#F8F7F3"/>
<path d="M505.731 90.7049V36.3115H510.018L510.446 47.3197C512.304 43.2186 514.876 40.1607 518.162 38.1462C521.52 36.0597 525.236 35.0164 529.308 35.0164C533.237 35.0164 536.703 35.8078 539.703 37.3907C542.704 38.9736 545.062 41.4199 546.776 44.7295C548.491 47.9672 549.348 52.1762 549.348 57.3566V90.7049H544.526V58.112C544.526 51.7086 543.168 46.9959 540.453 43.974C537.739 40.9522 533.809 39.4413 528.665 39.4413C525.236 39.4413 522.128 40.3047 519.341 42.0314C516.626 43.6863 514.483 46.1325 512.911 49.3702C511.339 52.6079 510.553 56.6011 510.553 61.3497V90.7049H505.731Z" fill="#F8F7F3"/>
<path d="M576.471 92C572.399 92 568.969 91.2086 566.183 89.6257C563.397 88.0428 561.289 85.9923 559.86 83.474C558.431 80.8839 557.717 78.1138 557.717 75.1639C557.717 71.2067 558.61 67.969 560.396 65.4508C562.182 62.9326 564.683 61.0619 567.898 59.8388C571.184 58.5437 574.971 57.8962 579.258 57.8962H595.547C595.547 54.0109 594.976 50.7013 593.833 47.9672C592.761 45.2332 591.082 43.1107 588.796 41.5997C586.509 40.0888 583.509 39.3333 579.793 39.3333C575.435 39.3333 571.827 40.3766 568.969 42.4631C566.183 44.5496 564.433 47.7154 563.718 51.9604H558.681C559.181 48.1471 560.432 45.0173 562.432 42.571C564.504 40.0528 567.04 38.1821 570.041 36.959C573.042 35.6639 576.293 35.0164 579.793 35.0164C584.723 35.0164 588.688 36.0237 591.689 38.0382C594.69 39.9809 596.869 42.643 598.226 46.0246C599.655 49.3342 600.37 53.1116 600.37 57.3566V90.7049H596.083L595.654 79.8046C595.083 80.9558 594.261 82.2509 593.19 83.6899C592.189 85.1289 590.939 86.4599 589.439 87.6831C587.938 88.9062 586.116 89.9135 583.973 90.7049C581.901 91.5683 579.401 92 576.471 92ZM577.007 87.5751C580.079 87.5751 582.758 86.9995 585.045 85.8484C587.331 84.6252 589.26 83.0424 590.832 81.0997C592.404 79.0852 593.583 76.9267 594.368 74.6243C595.154 72.322 595.547 70.0556 595.547 67.8251V62.1052H579.686C575.4 62.1052 572.042 62.6808 569.612 63.832C567.183 64.9112 565.433 66.4221 564.361 68.3648C563.361 70.3074 562.861 72.5378 562.861 75.056C562.861 77.3584 563.397 79.4809 564.468 81.4235C565.612 83.2942 567.219 84.8051 569.291 85.9563C571.434 87.0355 574.006 87.5751 577.007 87.5751Z" fill="#F8F7F3"/>
<path d="M611.179 90.7049V36.3115H615.465L615.894 47.3197C617.752 43.2186 620.324 40.1607 623.61 38.1462C626.968 36.0597 630.683 35.0164 634.756 35.0164C638.685 35.0164 642.15 35.8078 645.151 37.3907C648.152 38.9736 650.51 41.4199 652.224 44.7295C653.939 47.9672 654.796 52.1762 654.796 57.3566V90.7049H649.974V58.112C649.974 51.7086 648.616 46.9959 645.901 43.974C643.186 40.9522 639.257 39.4413 634.113 39.4413C630.683 39.4413 627.576 40.3047 624.789 42.0314C622.074 43.6863 619.931 46.1325 618.359 49.3702C616.787 52.6079 616.001 56.6011 616.001 61.3497V90.7049H611.179Z" fill="#F8F7F3"/>
<path d="M688.564 92C683.705 92 679.347 90.8488 675.489 88.5465C671.631 86.1721 668.595 82.8625 666.38 78.6175C664.236 74.3006 663.165 69.3001 663.165 63.6161C663.165 57.7883 664.272 52.7518 666.487 48.5068C668.773 44.1899 671.845 40.8802 675.703 38.5779C679.561 36.2036 683.848 35.0164 688.564 35.0164C694.636 35.0164 699.673 36.5993 703.674 39.765C707.747 42.9308 710.319 46.9959 711.39 51.9604H706.354C705.496 48.0751 703.46 45.0173 700.245 42.7869C697.101 40.5565 693.243 39.4413 688.671 39.4413C685.17 39.4413 681.848 40.3406 678.704 42.1393C675.561 43.8661 673.024 46.5282 671.095 50.1257C669.166 53.6512 668.202 58.148 668.202 63.6161C668.202 67.7892 668.773 71.3866 669.916 74.4085C671.059 77.4303 672.595 79.9485 674.525 81.9631C676.525 83.9057 678.74 85.3447 681.169 86.2801C683.598 87.2154 686.099 87.6831 688.671 87.6831C691.6 87.6831 694.279 87.2154 696.708 86.2801C699.209 85.2728 701.317 83.8338 703.031 81.9631C704.746 80.0205 705.853 77.7181 706.354 75.056H711.39C710.39 79.9485 707.89 84.0137 703.889 87.2514C699.959 90.4171 694.851 92 688.564 92Z" fill="#F8F7F3"/>
<path d="M743.102 92C738.1 92 733.742 90.8129 730.027 88.4385C726.312 86.0642 723.454 82.7186 721.453 78.4016C719.453 74.0847 718.453 69.0123 718.453 63.1844C718.453 57.2846 719.489 52.2482 721.561 48.0751C723.704 43.9021 726.633 40.7004 730.348 38.4699C734.135 36.1676 738.457 35.0164 743.316 35.0164C748.531 35.0164 752.89 36.2036 756.39 38.5779C759.891 40.8802 762.535 43.9381 764.321 47.7514C766.107 51.5647 767 55.7377 767 60.2705C767 60.99 767 61.6735 767 62.321C767 62.9686 766.964 63.724 766.893 64.5874H721.882V60.3784H762.285C762.213 53.3994 760.391 48.1471 756.819 44.6216C753.247 41.0961 748.674 39.3333 743.102 39.3333C739.744 39.3333 736.529 40.1248 733.456 41.7076C730.456 43.2905 727.991 45.7368 726.062 49.0465C724.204 52.3561 723.275 56.5651 723.275 61.6735V63.6161C723.275 69.0843 724.204 73.617 726.062 77.2145C727.919 80.74 730.348 83.3661 733.349 85.0929C736.35 86.8197 739.601 87.6831 743.102 87.6831C747.603 87.6831 751.318 86.6038 754.247 84.4454C757.176 82.2869 759.32 79.301 760.677 75.4877H765.607C764.607 78.6535 763.106 81.4955 761.106 84.0137C759.177 86.5319 756.712 88.5105 753.711 89.9495C750.71 91.3165 747.174 92 743.102 92Z" fill="#F8F7F3"/>
<path d="M774.76 29.1637V18.1323H778.164C779.015 18.1323 779.708 18.2742 780.244 18.5578C780.79 18.8415 781.189 19.225 781.442 19.7082C781.694 20.181 781.82 20.7221 781.82 21.3314C781.82 21.9198 781.689 22.4608 781.426 22.9546C781.163 23.4379 780.759 23.8266 780.212 24.1208C779.666 24.4045 778.957 24.5463 778.085 24.5463H775.863V29.1637H774.76ZM780.622 29.1637L778.148 24.1996H779.409L781.946 29.1637H780.622ZM775.863 23.648H778.085C778.978 23.648 779.635 23.4326 780.055 23.0019C780.475 22.5711 780.685 22.0143 780.685 21.3314C780.685 20.6275 780.48 20.076 780.071 19.6767C779.661 19.267 778.994 19.0621 778.069 19.0621H775.863V23.648Z" fill="#F8F7F3"/>
<path fill-rule="evenodd" clip-rule="evenodd" d="M774.559 29.3653V17.9312H778.164C779.035 17.9312 779.764 18.076 780.338 18.3797C780.916 18.6796 781.347 19.0905 781.62 19.6145C781.89 20.12 782.022 20.6941 782.022 21.3316C782.022 21.9512 781.883 22.525 781.604 23.0494L781.603 23.051C781.32 23.5729 780.885 23.988 780.309 24.2983L780.306 24.2997C780.147 24.3821 779.977 24.4527 779.795 24.5119L782.276 29.3653H780.498L778.196 24.7471C778.16 24.7476 778.123 24.7479 778.086 24.7479H776.065V29.3653H774.559ZM775.864 24.5465H778.086C778.089 24.5465 778.093 24.5465 778.096 24.5465C778.172 24.5464 778.247 24.5452 778.32 24.543L780.623 29.1639H781.947L779.505 24.3868C779.572 24.3694 779.638 24.3505 779.702 24.3303C779.886 24.2722 780.056 24.2024 780.213 24.121C780.759 23.8268 781.164 23.4381 781.427 22.9548C781.689 22.461 781.821 21.92 781.821 21.3316C781.821 20.7223 781.694 20.1812 781.442 19.7084C781.19 19.2252 780.791 18.8417 780.245 18.558C779.709 18.2744 779.015 18.1325 778.164 18.1325H774.76V29.1639H775.864V24.5465ZM779.929 19.8193C779.574 19.4645 778.972 19.2637 778.07 19.2637H776.065V23.4469H778.086C778.951 23.4469 779.544 23.238 779.911 22.8615C780.29 22.4735 780.485 21.9697 780.485 21.3316C780.485 20.6687 780.293 20.1741 779.931 19.8211L779.929 19.8193ZM775.864 23.6482V19.0623H778.07C778.994 19.0623 779.662 19.2672 780.071 19.6769C780.481 20.0761 780.686 20.6277 780.686 21.3316C780.686 22.0145 780.476 22.5713 780.056 23.0021C779.635 23.4328 778.979 23.6482 778.086 23.6482H775.864Z" fill="#F8F7F3"/>
<path fill-rule="evenodd" clip-rule="evenodd" d="M777.823 14.5103C772.68 14.5103 768.51 18.6799 768.51 23.8235C768.51 28.967 772.68 33.1367 777.823 33.1367C782.967 33.1367 787.137 28.967 787.137 23.8235C787.137 18.6799 782.967 14.5103 777.823 14.5103ZM767 23.8235C767 17.8458 771.846 13 777.823 13C783.801 13 788.647 17.8458 788.647 23.8235C788.647 29.8011 783.801 34.6469 777.823 34.6469C771.846 34.6469 767 29.8011 767 23.8235Z" fill="#F8F7F3"/>
</svg>
