<svg width="550" height="221" viewBox="0 0 550 221" fill="none" xmlns="http://www.w3.org/2000/svg">
<path d="M535.26 26.1637V15.1323H538.664C539.515 15.1323 540.208 15.2742 540.744 15.5578C541.29 15.8415 541.689 16.225 541.942 16.7082C542.194 17.181 542.32 17.7221 542.32 18.3314C542.32 18.9198 542.189 19.4608 541.926 19.9546C541.663 20.4379 541.259 20.8266 540.712 21.1208C540.166 21.4045 539.457 21.5463 538.585 21.5463H536.363V26.1637H535.26ZM541.122 26.1637L538.648 21.1996H539.909L542.446 26.1637H541.122ZM536.363 20.648H538.585C539.478 20.648 540.135 20.4326 540.555 20.0019C540.975 19.5711 541.185 19.0143 541.185 18.3314C541.185 17.6275 540.98 17.076 540.571 16.6767C540.161 16.267 539.494 16.0621 538.569 16.0621H536.363V20.648Z" fill="#9F9F9F"/>
<path fill-rule="evenodd" clip-rule="evenodd" d="M535.059 26.3653V14.9312H538.664C539.535 14.9312 540.264 15.076 540.838 15.3797C541.416 15.6796 541.847 16.0905 542.12 16.6145C542.39 17.12 542.522 17.6941 542.522 18.3316C542.522 18.9512 542.383 19.525 542.104 20.0494L542.103 20.051C541.82 20.5729 541.385 20.988 540.809 21.2983L540.806 21.2997C540.647 21.3821 540.477 21.4527 540.295 21.5119L542.776 26.3653H540.998L538.696 21.7471C538.66 21.7476 538.623 21.7479 538.586 21.7479H536.565V26.3653H535.059ZM536.364 21.5465H538.586C538.589 21.5465 538.593 21.5465 538.596 21.5465C538.672 21.5464 538.747 21.5452 538.82 21.543L541.123 26.1639H542.447L540.005 21.3868C540.072 21.3694 540.138 21.3505 540.202 21.3303C540.386 21.2722 540.556 21.2024 540.713 21.121C541.259 20.8268 541.664 20.4381 541.927 19.9548C542.189 19.461 542.321 18.92 542.321 18.3316C542.321 17.7223 542.194 17.1812 541.942 16.7084C541.69 16.2252 541.291 15.8417 540.745 15.558C540.209 15.2744 539.515 15.1325 538.664 15.1325H535.26V26.1639H536.364V21.5465ZM540.429 16.8193C540.074 16.4645 539.472 16.2637 538.57 16.2637H536.565V20.4469H538.586C539.451 20.4469 540.044 20.238 540.411 19.8615C540.79 19.4735 540.985 18.9697 540.985 18.3316C540.985 17.6687 540.793 17.1741 540.431 16.8211L540.429 16.8193ZM536.364 20.6482V16.0623H538.57C539.494 16.0623 540.162 16.2672 540.571 16.6769C540.981 17.0761 541.186 17.6277 541.186 18.3316C541.186 19.0145 540.976 19.5713 540.556 20.0021C540.135 20.4328 539.479 20.6482 538.586 20.6482H536.364Z" fill="#9F9F9F"/>
<path fill-rule="evenodd" clip-rule="evenodd" d="M538.323 11.5103C533.18 11.5103 529.01 15.6799 529.01 20.8235C529.01 25.967 533.18 30.1367 538.323 30.1367C543.467 30.1367 547.637 25.967 547.637 20.8235C547.637 15.6799 543.467 11.5103 538.323 11.5103ZM527.5 20.8235C527.5 14.8458 532.346 10 538.323 10C544.301 10 549.147 14.8458 549.147 20.8235C549.147 26.8011 544.301 31.6469 538.323 31.6469C532.346 31.6469 527.5 26.8011 527.5 20.8235Z" fill="#9F9F9F"/>
<path d="M10.5 109.18V3.03278H45.0636C53.3146 3.03278 60.1066 4.44809 65.4395 7.27869C70.8731 10.0082 74.8477 13.6981 77.3632 18.3484C79.9794 22.9986 81.2875 28.306 81.2875 34.2705C81.2875 40.0328 79.9794 45.2896 77.3632 50.041C74.8477 54.6913 70.9234 58.4317 65.5905 61.2623C60.2575 63.9918 53.4152 65.3566 45.0636 65.3566H23.1784V109.18H10.5ZM23.1784 54.5902H44.7617C53.214 54.5902 59.2513 52.7705 62.8737 49.1312C66.4961 45.3907 68.3073 40.4372 68.3073 34.2705C68.3073 27.6995 66.4961 22.6448 62.8737 19.1066C59.2513 15.4672 53.214 13.6475 44.7617 13.6475H23.1784V54.5902Z" fill="#9F9F9F"/>
<path d="M120.477 109.18V32.7541H131.947L132.551 46.0984C134.966 41.347 138.387 37.6571 142.815 35.0287C147.343 32.2992 152.474 30.9344 158.21 30.9344C164.146 30.9344 169.278 32.1476 173.605 34.5738C177.932 36.8989 181.302 40.4877 183.717 45.3402C186.132 50.0915 187.34 56.1571 187.34 63.5369V109.18H174.661V64.9016C174.661 57.2186 172.951 51.4563 169.53 47.6148C166.209 43.7732 161.48 41.8525 155.342 41.8525C151.116 41.8525 147.343 42.9139 144.022 45.0369C140.702 47.0587 138.035 50.041 136.023 53.9836C134.111 57.8251 133.155 62.6271 133.155 68.3894V109.18H120.477Z" fill="#9F9F9F"/>
<path d="M200.101 109.18V32.7541H211.572L212.176 46.0984C214.591 41.347 218.012 37.6571 222.439 35.0287C226.967 32.2992 232.099 30.9344 237.835 30.9344C243.771 30.9344 248.903 32.1476 253.23 34.5738C257.556 36.8989 260.927 40.4877 263.342 45.3402C265.757 50.0915 266.965 56.1571 266.965 63.5369V109.18H254.286V64.9016C254.286 57.2186 252.576 51.4563 249.155 47.6148C245.834 43.7732 241.105 41.8525 234.967 41.8525C230.741 41.8525 226.967 42.9139 223.647 45.0369C220.326 47.0587 217.66 50.041 215.647 53.9836C213.736 57.8251 212.78 62.6271 212.78 68.3894V109.18H200.101Z" fill="#9F9F9F"/>
<path d="M304.479 111C298.341 111 293.21 109.939 289.084 107.816C284.959 105.592 281.89 102.71 279.877 99.1721C277.865 95.5328 276.859 91.5902 276.859 87.3443C276.859 82.1885 278.167 77.8415 280.783 74.3033C283.5 70.6639 287.273 67.9344 292.103 66.1148C297.033 64.194 302.819 63.2336 309.46 63.2336H329.534C329.534 58.4823 328.779 54.5396 327.27 51.4058C325.861 48.1708 323.748 45.7445 320.931 44.1271C318.214 42.5096 314.793 41.7008 310.668 41.7008C305.838 41.7008 301.662 42.9139 298.14 45.3402C294.618 47.7664 292.455 51.3552 291.65 56.1066H278.67C279.274 50.6475 281.085 46.0984 284.103 42.459C287.223 38.7186 291.147 35.888 295.876 33.9672C300.605 31.9454 305.536 30.9344 310.668 30.9344C317.711 30.9344 323.547 32.2486 328.176 34.8771C332.905 37.4044 336.427 40.9932 338.741 45.6434C341.055 50.1926 342.212 55.6011 342.212 61.8689V109.18H330.893L330.138 95.6844C329.132 97.8074 327.824 99.8292 326.214 101.75C324.704 103.57 322.893 105.187 320.78 106.602C318.768 107.917 316.403 108.978 313.686 109.787C310.969 110.596 307.9 111 304.479 111ZM306.441 100.234C309.963 100.234 313.133 99.526 315.95 98.1107C318.868 96.5943 321.333 94.5724 323.346 92.0451C325.358 89.4167 326.868 86.5355 327.874 83.4016C328.981 80.2678 329.534 76.9822 329.534 73.5451V73.0902H310.517C305.586 73.0902 301.612 73.6967 298.593 74.9098C295.574 76.0219 293.411 77.6394 292.103 79.7623C290.795 81.7842 290.141 84.1093 290.141 86.7377C290.141 89.4672 290.744 91.8429 291.952 93.8648C293.26 95.8866 295.121 97.4536 297.536 98.5656C300.052 99.6776 303.02 100.234 306.441 100.234Z" fill="#9F9F9F"/>
<path d="M389.044 111C381.9 111 375.46 109.332 369.724 105.996C364.089 102.66 359.662 98.0096 356.442 92.0451C353.222 85.9795 351.612 79.0041 351.612 71.1189C351.612 63.0314 353.222 56.0055 356.442 50.041C359.662 44.0765 364.089 39.4262 369.724 36.0902C375.46 32.653 381.9 30.9344 389.044 30.9344C398.1 30.9344 405.646 33.3101 411.684 38.0615C417.721 42.7118 421.545 48.9795 423.155 56.8648H410.174C409.168 52.1134 406.703 48.4235 402.779 45.7951C398.854 43.1667 394.226 41.8525 388.893 41.8525C384.566 41.8525 380.541 42.9645 376.818 45.1885C373.196 47.3115 370.227 50.5465 367.913 54.8935C365.699 59.2404 364.593 64.5984 364.593 70.9672C364.593 75.7186 365.247 79.9645 366.555 83.7049C367.863 87.3443 369.624 90.3771 371.837 92.8033C374.051 95.2295 376.617 97.0997 379.535 98.4139C382.554 99.6271 385.673 100.234 388.893 100.234C392.515 100.234 395.785 99.6776 398.703 98.5656C401.621 97.3525 404.087 95.5833 406.099 93.2582C408.112 90.9331 409.47 88.2036 410.174 85.0697H423.155C421.545 92.7527 417.671 99.0205 411.533 103.873C405.495 108.624 397.999 111 389.044 111Z" fill="#9F9F9F"/>
<path d="M434.112 109.18V0H446.79V109.18H434.112Z" fill="#9F9F9F"/>
<path d="M494.031 111C486.987 111 480.698 109.332 475.164 105.996C469.63 102.66 465.303 98.0096 462.184 92.0451C459.065 85.9795 457.505 78.9536 457.505 70.9672C457.505 62.8798 459.014 55.8538 462.033 49.8894C465.152 43.9249 469.479 39.2746 475.013 35.9385C480.648 32.6025 487.088 30.9344 494.333 30.9344C501.779 30.9344 508.118 32.6025 513.35 35.9385C518.583 39.2746 522.557 43.6721 525.274 49.1312C528.091 54.4891 529.5 60.403 529.5 66.873C529.5 67.8839 529.5 68.9454 529.5 70.0574C529.5 71.1694 529.45 72.4331 529.349 73.8484H467.014V63.9918H516.973C516.671 57.0164 514.356 51.5574 510.03 47.6148C505.804 43.6721 500.471 41.7008 494.031 41.7008C489.805 41.7008 485.83 42.7118 482.107 44.7336C478.384 46.6544 475.416 49.5355 473.202 53.3771C470.988 57.1175 469.882 61.8183 469.882 67.4795V71.7254C469.882 77.9932 470.988 83.25 473.202 87.4959C475.516 91.7418 478.485 94.9262 482.107 97.0492C485.83 99.1721 489.805 100.234 494.031 100.234C499.364 100.234 503.741 99.0711 507.162 96.7459C510.684 94.3197 513.25 91.0342 514.859 86.8894H527.387C526.079 91.5396 523.916 95.6844 520.897 99.3238C517.878 102.862 514.105 105.693 509.577 107.816C505.149 109.939 499.967 111 494.031 111Z" fill="#9F9F9F"/>
<path d="M91.1975 20.1066C90.6728 20.1066 90.3323 19.5509 90.5686 19.0802L98.1786 3.92081C98.4389 3.40217 99.176 3.40217 99.4364 3.92081L107.046 19.0802C107.283 19.5509 106.942 20.1066 106.417 20.1066H91.1975Z" fill="#9F9F9F"/>
<path d="M92.4683 109.18V32.7541H105.147V109.18H92.4683Z" fill="#9F9F9F"/>
<path d="M10.5904 218.943V158.594H0V153.533H10.5904V140.165C10.5904 136.964 11.107 134.282 12.1403 132.119C13.1735 129.956 14.7663 128.312 16.9189 127.187C19.1575 126.062 21.9988 125.5 25.4429 125.5H31.513V130.561H25.9595C22.6016 130.561 20.1477 131.297 18.5978 132.768C17.1341 134.239 16.4023 136.791 16.4023 140.425V153.533H45.7197V218.943H39.9079V158.594H16.4023V218.943H10.5904ZM42.8784 136.661C41.7591 136.661 40.7258 136.229 39.7787 135.363C38.9177 134.412 38.4872 133.287 38.4872 131.989C38.4872 130.691 38.9177 129.653 39.7787 128.874C40.7258 128.009 41.8021 127.576 43.0075 127.576C44.2129 127.576 45.2462 128.009 46.1072 128.874C46.9682 129.653 47.3987 130.691 47.3987 131.989C47.3987 133.287 46.9682 134.412 46.1072 135.363C45.2462 136.229 44.1699 136.661 42.8784 136.661Z" fill="#9F9F9F"/>
<path d="M61.1372 218.943V153.533H66.3033L66.8199 166.77C69.0585 161.839 72.1581 158.162 76.1188 155.739C80.1656 153.23 84.6428 151.975 89.5506 151.975C94.2861 151.975 98.4621 152.927 102.078 154.831C105.695 156.734 108.536 159.676 110.602 163.656C112.669 167.549 113.702 172.611 113.702 178.84V218.943H107.89V179.749C107.89 172.048 106.254 166.381 102.982 162.747C99.7105 159.113 94.975 157.296 88.7757 157.296C84.6428 157.296 80.8974 158.335 77.5395 160.411C74.2676 162.401 71.6846 165.343 69.7904 169.236C67.8961 173.13 66.949 177.932 66.949 183.642V218.943H61.1372Z" fill="#9F9F9F"/>
<path d="M146.388 220.5C141.481 220.5 137.348 219.548 133.99 217.645C130.632 215.741 128.092 213.275 126.37 210.247C124.648 207.132 123.787 203.801 123.787 200.254C123.787 195.495 124.863 191.602 127.016 188.574C129.168 185.546 132.182 183.296 136.056 181.825C140.017 180.268 144.58 179.489 149.746 179.489H169.377C169.377 174.817 168.689 170.837 167.311 167.549C166.02 164.261 163.996 161.709 161.241 159.892C158.486 158.075 154.869 157.167 150.392 157.167C145.14 157.167 140.792 158.421 137.348 160.93C133.99 163.439 131.88 167.246 131.019 172.351H124.949C125.552 167.765 127.059 164.002 129.47 161.06C131.966 158.032 135.023 155.782 138.639 154.311C142.256 152.754 146.173 151.975 150.392 151.975C156.333 151.975 161.112 153.187 164.728 155.609C168.344 157.945 170.97 161.147 172.606 165.213C174.328 169.193 175.189 173.735 175.189 178.84V218.943H170.023L169.507 205.835C168.818 207.219 167.828 208.776 166.536 210.507C165.331 212.237 163.824 213.838 162.016 215.309C160.208 216.78 158.012 217.991 155.429 218.943C152.932 219.981 149.919 220.5 146.388 220.5ZM147.034 215.179C150.737 215.179 153.965 214.487 156.721 213.102C159.476 211.632 161.801 209.728 163.695 207.392C165.589 204.969 167.01 202.374 167.957 199.605C168.904 196.836 169.377 194.111 169.377 191.429V184.551H150.263C145.097 184.551 141.05 185.243 138.123 186.627C135.195 187.925 133.086 189.742 131.794 192.078C130.589 194.414 129.986 197.096 129.986 200.124C129.986 202.893 130.632 205.445 131.923 207.781C133.301 210.031 135.238 211.848 137.735 213.232C140.318 214.53 143.418 215.179 147.034 215.179Z" fill="#9F9F9F"/>
<path d="M188.215 218.943V153.533H193.381L193.898 166.77C196.137 161.839 199.236 158.162 203.197 155.739C207.244 153.23 211.721 151.975 216.629 151.975C221.364 151.975 225.54 152.927 229.157 154.831C232.773 156.734 235.614 159.676 237.681 163.656C239.747 167.549 240.78 172.611 240.78 178.84V218.943H234.968V179.749C234.968 172.048 233.332 166.381 230.061 162.747C226.789 159.113 222.053 157.296 215.854 157.296C211.721 157.296 207.976 158.335 204.618 160.411C201.346 162.401 198.763 165.343 196.869 169.236C194.974 173.13 194.027 177.932 194.027 183.642V218.943H188.215Z" fill="#9F9F9F"/>
<path d="M281.474 220.5C275.619 220.5 270.367 219.116 265.718 216.347C261.068 213.492 257.409 209.512 254.74 204.407C252.157 199.216 250.865 193.203 250.865 186.367C250.865 179.359 252.2 173.303 254.869 168.198C257.624 163.007 261.326 159.027 265.976 156.258C270.625 153.403 275.791 151.975 281.474 151.975C288.793 151.975 294.863 153.879 299.684 157.686C304.592 161.493 307.692 166.381 308.983 172.351H302.913C301.88 167.679 299.426 164.002 295.552 161.32C291.763 158.637 287.114 157.296 281.603 157.296C277.384 157.296 273.381 158.378 269.592 160.541C265.804 162.617 262.747 165.819 260.422 170.145C258.098 174.384 256.935 179.792 256.935 186.367C256.935 191.386 257.624 195.712 259.002 199.346C260.379 202.979 262.23 206.008 264.555 208.43C266.966 210.766 269.635 212.497 272.563 213.622C275.49 214.746 278.504 215.309 281.603 215.309C285.133 215.309 288.362 214.746 291.29 213.622C294.303 212.41 296.843 210.68 298.91 208.43C300.976 206.094 302.311 203.326 302.913 200.124H308.983C307.778 206.008 304.764 210.896 299.943 214.79C295.207 218.597 289.051 220.5 281.474 220.5Z" fill="#9F9F9F"/>
<path d="M347.199 220.5C341.172 220.5 335.92 219.072 331.443 216.217C326.965 213.362 323.521 209.339 321.111 204.148C318.7 198.956 317.494 192.857 317.494 185.848C317.494 178.754 318.743 172.697 321.24 167.679C323.823 162.661 327.353 158.811 331.83 156.128C336.393 153.36 341.603 151.975 347.457 151.975C353.743 151.975 358.995 153.403 363.214 156.258C367.433 159.027 370.619 162.704 372.771 167.29C374.924 171.875 376 176.893 376 182.344C376 183.209 376 184.031 376 184.81C376 185.589 375.957 186.497 375.871 187.535H321.627V182.474H370.317C370.231 174.081 368.036 167.765 363.731 163.526C359.426 159.286 353.915 157.167 347.199 157.167C343.152 157.167 339.278 158.118 335.576 160.022C331.959 161.925 328.989 164.867 326.664 168.847C324.425 172.827 323.306 177.888 323.306 184.031V186.367C323.306 192.943 324.425 198.394 326.664 202.72C328.903 206.959 331.83 210.117 335.446 212.194C339.063 214.27 342.98 215.309 347.199 215.309C352.624 215.309 357.101 214.011 360.631 211.415C364.161 208.82 366.744 205.229 368.38 200.643H374.321C373.116 204.45 371.307 207.868 368.897 210.896C366.572 213.924 363.601 216.304 359.985 218.034C356.369 219.678 352.107 220.5 347.199 220.5Z" fill="#9F9F9F"/>
</svg>
