<svg width="1440" height="900" viewBox="0 0 1440 900" fill="none" xmlns="http://www.w3.org/2000/svg">
<rect width="1440" height="900" fill="#141414"/>
<mask id="mask0_1040_320" style="mask-type:alpha" maskUnits="userSpaceOnUse" x="101" y="269" width="1238" height="672">
<path d="M1205.96 660.78L865.118 459.016L597.607 612.693C555.574 636.84 501.924 622.34 477.777 580.306C453.63 538.272 468.13 484.623 510.163 460.476L820.574 282.154C823.654 280.308 826.837 278.657 830.102 277.208C841.794 271.99 854.143 269.535 866.342 269.624C878.556 269.691 890.887 272.31 902.522 277.689C905.761 279.178 908.915 280.867 911.964 282.75L1295.38 509.717C1337.1 534.41 1350.9 588.245 1326.21 629.96C1301.51 671.675 1247.68 685.474 1205.96 660.78Z" fill="url(#paint0_linear_1040_320)"/>
<path d="M234.038 549.219L574.882 750.983L842.393 597.307C884.427 573.16 938.077 587.66 962.224 629.694C986.371 671.727 971.871 725.377 929.837 749.524L619.432 927.842C616.335 929.699 613.135 931.358 609.851 932.813C598.178 938.015 585.849 940.463 573.67 940.375C561.463 940.31 549.138 937.696 537.507 932.324C534.257 930.831 531.092 929.137 528.032 927.248L144.616 700.283C102.901 675.589 89.102 621.755 113.795 580.04C138.489 538.325 192.323 524.526 234.038 549.219Z" fill="url(#paint1_linear_1040_320)"/>
</mask>
<g mask="url(#mask0_1040_320)">
<g filter="url(#filter0_ii_1040_320)">
<path fill-rule="evenodd" clip-rule="evenodd" d="M865.118 459.016L1205.96 660.78C1247.68 685.473 1301.51 671.675 1326.21 629.96C1350.9 588.245 1337.1 534.41 1295.38 509.717L911.945 282.738C908.954 280.893 905.863 279.234 902.69 277.767C890.968 272.317 878.535 269.674 866.224 269.624C854.067 269.551 841.763 272.005 830.112 277.203C826.844 278.653 823.659 280.305 820.575 282.153L510.163 460.476C468.129 484.623 453.629 538.273 477.776 580.306C501.923 622.34 555.573 636.84 597.607 612.693L865.118 459.016Z" fill="url(#paint2_radial_1040_320)"/>
<path fill-rule="evenodd" clip-rule="evenodd" d="M865.118 459.016L1205.96 660.78C1247.68 685.473 1301.51 671.675 1326.21 629.96C1350.9 588.245 1337.1 534.41 1295.38 509.717L911.945 282.738C908.954 280.893 905.863 279.234 902.69 277.767C890.968 272.317 878.535 269.674 866.224 269.624C854.067 269.551 841.763 272.005 830.112 277.203C826.844 278.653 823.659 280.305 820.575 282.153L510.163 460.476C468.129 484.623 453.629 538.273 477.776 580.306C501.923 622.34 555.573 636.84 597.607 612.693L865.118 459.016Z" fill="#1F2E7E" fill-opacity="0.2"/>
</g>
<g filter="url(#filter1_ii_1040_320)">
<path fill-rule="evenodd" clip-rule="evenodd" d="M574.883 750.983L234.039 549.219C192.324 524.526 138.489 538.325 113.796 580.04C89.1025 621.755 102.901 675.589 144.616 700.283L528.044 927.254C531.066 929.12 534.192 930.795 537.4 932.274C549.107 937.701 561.521 940.331 573.813 940.376C585.91 940.444 598.15 938.009 609.748 932.859C613.071 931.391 616.31 929.715 619.443 927.836L929.838 749.524C971.871 725.377 986.371 671.727 962.224 629.694C938.077 587.66 884.427 573.16 842.394 597.307L574.883 750.983Z" fill="url(#paint3_radial_1040_320)"/>
<path fill-rule="evenodd" clip-rule="evenodd" d="M574.883 750.983L234.039 549.219C192.324 524.526 138.489 538.325 113.796 580.04C89.1025 621.755 102.901 675.589 144.616 700.283L528.044 927.254C531.066 929.12 534.192 930.795 537.4 932.274C549.107 937.701 561.521 940.331 573.813 940.376C585.91 940.444 598.15 938.009 609.748 932.859C613.071 931.391 616.31 929.715 619.443 927.836L929.838 749.524C971.871 725.377 986.371 671.727 962.224 629.694C938.077 587.66 884.427 573.16 842.394 597.307L574.883 750.983Z" fill="#1F2E7E" fill-opacity="0.2"/>
</g>
</g>
<defs>
<filter id="filter0_ii_1040_320" x="434.297" y="269.622" width="949.822" height="459.063" filterUnits="userSpaceOnUse" color-interpolation-filters="sRGB">
<feFlood flood-opacity="0" result="BackgroundImageFix"/>
<feBlend mode="normal" in="SourceGraphic" in2="BackgroundImageFix" result="shape"/>
<feColorMatrix in="SourceAlpha" type="matrix" values="0 0 0 0 0 0 0 0 0 0 0 0 0 0 0 0 0 0 127 0" result="hardAlpha"/>
<feOffset dx="-31.7996" dy="55.6493"/>
<feGaussianBlur stdDeviation="67.5742"/>
<feComposite in2="hardAlpha" operator="arithmetic" k2="-1" k3="1"/>
<feColorMatrix type="matrix" values="0 0 0 0 1 0 0 0 0 1 0 0 0 0 1 0 0 0 0.87 0"/>
<feBlend mode="lighten" in2="shape" result="effect1_innerShadow_1040_320"/>
<feColorMatrix in="SourceAlpha" type="matrix" values="0 0 0 0 0 0 0 0 0 0 0 0 0 0 0 0 0 0 127 0" result="hardAlpha"/>
<feOffset dx="45.6583" dy="26.634"/>
<feGaussianBlur stdDeviation="26.634"/>
<feComposite in2="hardAlpha" operator="arithmetic" k2="-1" k3="1"/>
<feColorMatrix type="matrix" values="0 0 0 0 0.168627 0 0 0 0 0.180392 0 0 0 0 0.239216 0 0 0 0.9 0"/>
<feBlend mode="multiply" in2="effect1_innerShadow_1040_320" result="effect2_innerShadow_1040_320"/>
</filter>
<filter id="filter1_ii_1040_320" x="69.7409" y="536.964" width="949.821" height="459.062" filterUnits="userSpaceOnUse" color-interpolation-filters="sRGB">
<feFlood flood-opacity="0" result="BackgroundImageFix"/>
<feBlend mode="normal" in="SourceGraphic" in2="BackgroundImageFix" result="shape"/>
<feColorMatrix in="SourceAlpha" type="matrix" values="0 0 0 0 0 0 0 0 0 0 0 0 0 0 0 0 0 0 127 0" result="hardAlpha"/>
<feOffset dx="-31.7996" dy="55.6493"/>
<feGaussianBlur stdDeviation="67.5742"/>
<feComposite in2="hardAlpha" operator="arithmetic" k2="-1" k3="1"/>
<feColorMatrix type="matrix" values="0 0 0 0 1 0 0 0 0 1 0 0 0 0 1 0 0 0 0.87 0"/>
<feBlend mode="lighten" in2="shape" result="effect1_innerShadow_1040_320"/>
<feColorMatrix in="SourceAlpha" type="matrix" values="0 0 0 0 0 0 0 0 0 0 0 0 0 0 0 0 0 0 127 0" result="hardAlpha"/>
<feOffset dx="45.6583" dy="26.634"/>
<feGaussianBlur stdDeviation="26.634"/>
<feComposite in2="hardAlpha" operator="arithmetic" k2="-1" k3="1"/>
<feColorMatrix type="matrix" values="0 0 0 0 0.168627 0 0 0 0 0.180392 0 0 0 0 0.239216 0 0 0 0.9 0"/>
<feBlend mode="multiply" in2="effect1_innerShadow_1040_320" result="effect2_innerShadow_1040_320"/>
</filter>
<linearGradient id="paint0_linear_1040_320" x1="21.8668" y1="700.822" x2="1007.59" y2="269.901" gradientUnits="userSpaceOnUse">
<stop offset="0.132716" stop-opacity="0"/>
<stop offset="1"/>
</linearGradient>
<linearGradient id="paint1_linear_1040_320" x1="21.8668" y1="700.822" x2="1007.59" y2="269.901" gradientUnits="userSpaceOnUse">
<stop offset="0.132716" stop-opacity="0"/>
<stop offset="1"/>
</linearGradient>
<radialGradient id="paint2_radial_1040_320" cx="0" cy="0" r="1" gradientUnits="userSpaceOnUse" gradientTransform="translate(721.901 240.669) rotate(91.8985) scale(126.421 224.027)">
<stop stop-color="#949494"/>
<stop offset="0.635171" stop-color="#181818"/>
<stop offset="1" stop-color="#1D1D1D"/>
</radialGradient>
<radialGradient id="paint3_radial_1040_320" cx="0" cy="0" r="1" gradientUnits="userSpaceOnUse" gradientTransform="translate(718.099 969.331) rotate(-88.1015) scale(126.421 224.027)">
<stop stop-color="#949494"/>
<stop offset="0.635171" stop-color="#181818"/>
<stop offset="1" stop-color="#1D1D1D"/>
</radialGradient>
</defs>
</svg>
