<svg width="1440" height="900" viewBox="0 0 1440 900" fill="none" xmlns="http://www.w3.org/2000/svg">
<rect width="1440" height="900" fill="#141414"/>
<mask id="mask0_1040_1533" style="mask-type:alpha" maskUnits="userSpaceOnUse" x="-48" y="-342" width="1584" height="1584">
<rect x="-47.1641" y="-341.165" width="1582.33" height="1582.33" fill="url(#paint0_linear_1040_1533)"/>
</mask>
<g mask="url(#mask0_1040_1533)">
<g filter="url(#filter0_ii_1040_1533)">
<path d="M1463.82 1025.28C1483.01 1043.46 1470.15 1075.76 1443.71 1075.76L1233.94 1075.76C1180 1075.76 1136.88 1030.92 1138.97 977.025L1146.26 789.667C1147.22 764.876 1138.46 740.691 1121.83 722.278L992.089 578.596L1463.82 1025.28Z" fill="url(#paint1_radial_1040_1533)"/>
<path d="M1463.82 1025.28C1483.01 1043.46 1470.15 1075.76 1443.71 1075.76L1233.94 1075.76C1180 1075.76 1136.88 1030.92 1138.97 977.025L1146.26 789.667C1147.22 764.876 1138.46 740.691 1121.83 722.278L992.089 578.596L1463.82 1025.28Z" fill="#1F2E7E" fill-opacity="0.2"/>
</g>
<g filter="url(#filter1_ii_1040_1533)">
<path d="M550.601 208.572C569.799 226.751 556.933 259.05 530.494 259.05L320.726 259.05C266.787 259.05 223.66 214.212 225.756 160.315L233.044 -27.0434C234.009 -51.8339 225.241 -76.0188 208.614 -94.4322L78.8738 -238.114L550.601 208.572Z" fill="url(#paint2_radial_1040_1533)"/>
<path d="M550.601 208.572C569.799 226.751 556.933 259.05 530.494 259.05L320.726 259.05C266.787 259.05 223.66 214.212 225.756 160.315L233.044 -27.0434C234.009 -51.8339 225.241 -76.0188 208.614 -94.4322L78.8738 -238.114L550.601 208.572Z" fill="#1F2E7E" fill-opacity="0.2"/>
</g>
<g filter="url(#filter2_ii_1040_1533)">
<path d="M1104.95 733.246C1107.13 735.163 1108.56 737.793 1108.99 740.666C1114.69 779.325 1067.13 802.239 1040.45 773.684L719.888 430.537L564.213 258.134L1104.95 733.246Z" fill="url(#paint3_radial_1040_1533)"/>
<path d="M1104.95 733.246C1107.13 735.163 1108.56 737.793 1108.99 740.666C1114.69 779.325 1067.13 802.239 1040.45 773.684L719.888 430.537L564.213 258.134L1104.95 733.246Z" fill="#1F2E7E" fill-opacity="0.2"/>
</g>
<g filter="url(#filter3_ii_1040_1533)">
<path d="M903.878 415.439C906.06 417.356 907.49 419.986 907.914 422.86C913.619 461.518 866.054 484.433 839.378 455.877L518.815 112.73L363.141 -59.6726L903.878 415.439Z" fill="url(#paint4_radial_1040_1533)"/>
<path d="M903.878 415.439C906.06 417.356 907.49 419.986 907.914 422.86C913.619 461.518 866.054 484.433 839.378 455.877L518.815 112.73L363.141 -59.6726L903.878 415.439Z" fill="#1F2E7E" fill-opacity="0.2"/>
</g>
<g filter="url(#filter4_ii_1040_1533)">
<path d="M920.308 474.019C901.11 455.84 913.976 423.541 940.415 423.541L1150.18 423.541C1204.12 423.541 1247.25 468.378 1245.15 522.276L1237.86 709.634C1236.9 734.425 1245.67 758.61 1262.29 777.023L1392.04 920.705L920.308 474.019Z" fill="url(#paint5_radial_1040_1533)"/>
<path d="M920.308 474.019C901.11 455.84 913.976 423.541 940.415 423.541L1150.18 423.541C1204.12 423.541 1247.25 468.378 1245.15 522.276L1237.86 709.634C1236.9 734.425 1245.67 758.61 1262.29 777.023L1392.04 920.705L920.308 474.019Z" fill="#1F2E7E" fill-opacity="0.2"/>
</g>
<g filter="url(#filter5_ii_1040_1533)">
<path d="M456.068 -46.0274C436.871 -64.2062 449.736 -96.5049 476.175 -96.5049L685.944 -96.5049C739.882 -96.5049 783.009 -51.6676 780.913 2.23024L773.625 189.588C772.661 214.379 781.429 238.564 798.055 256.977L927.796 400.659L456.068 -46.0274Z" fill="url(#paint6_radial_1040_1533)"/>
<path d="M456.068 -46.0274C436.871 -64.2062 449.736 -96.5049 476.175 -96.5049L685.944 -96.5049C739.882 -96.5049 783.009 -51.6676 780.913 2.23024L773.625 189.588C772.661 214.379 781.429 238.564 798.055 256.977L927.796 400.659L456.068 -46.0274Z" fill="#1F2E7E" fill-opacity="0.2"/>
</g>
<g filter="url(#filter6_ii_1040_1533)">
<path d="M993.491 304.906C967.658 330.739 861.66 266.626 835.827 240.793C809.994 214.96 809.994 173.077 835.827 147.244C861.66 121.411 903.543 121.411 929.376 147.244C955.209 173.077 1019.32 279.074 993.491 304.906Z" fill="url(#paint7_radial_1040_1533)"/>
<path d="M993.491 304.906C967.658 330.739 861.66 266.626 835.827 240.793C809.994 214.96 809.994 173.077 835.827 147.244C861.66 121.411 903.543 121.411 929.376 147.244C955.209 173.077 1019.32 279.074 993.491 304.906Z" fill="#1F2E7E" fill-opacity="0.2"/>
</g>
<g filter="url(#filter7_ii_1040_1533)">
<path d="M889.884 769.148C915.717 743.315 1021.72 807.429 1047.55 833.261C1073.38 859.094 1073.38 900.978 1047.55 926.81C1021.72 952.643 979.832 952.643 953.999 926.81C928.166 900.978 864.051 794.981 889.884 769.148Z" fill="url(#paint8_radial_1040_1533)"/>
<path d="M889.884 769.148C915.717 743.315 1021.72 807.429 1047.55 833.261C1073.38 859.094 1073.38 900.978 1047.55 926.81C1021.72 952.643 979.832 952.643 953.999 926.81C928.166 900.978 864.051 794.981 889.884 769.148Z" fill="#1F2E7E" fill-opacity="0.2"/>
</g>
<g filter="url(#filter8_ii_1040_1533)">
<circle cx="789.053" cy="677.134" r="45.24" fill="url(#paint9_radial_1040_1533)"/>
<circle cx="789.053" cy="677.134" r="45.24" fill="#1F2E7E" fill-opacity="0.2"/>
</g>
</g>
<defs>
<filter id="filter0_ii_1040_1533" x="975.953" y="578.596" width="520.227" height="525.402" filterUnits="userSpaceOnUse" color-interpolation-filters="sRGB">
<feFlood flood-opacity="0" result="BackgroundImageFix"/>
<feBlend mode="normal" in="SourceGraphic" in2="BackgroundImageFix" result="shape"/>
<feColorMatrix in="SourceAlpha" type="matrix" values="0 0 0 0 0 0 0 0 0 0 0 0 0 0 0 0 0 0 127 0" result="hardAlpha"/>
<feOffset dx="-16.136" dy="28.238"/>
<feGaussianBlur stdDeviation="34.289"/>
<feComposite in2="hardAlpha" operator="arithmetic" k2="-1" k3="1"/>
<feColorMatrix type="matrix" values="0 0 0 0 1 0 0 0 0 1 0 0 0 0 1 0 0 0 0.87 0"/>
<feBlend mode="lighten" in2="shape" result="effect1_innerShadow_1040_1533"/>
<feColorMatrix in="SourceAlpha" type="matrix" values="0 0 0 0 0 0 0 0 0 0 0 0 0 0 0 0 0 0 127 0" result="hardAlpha"/>
<feOffset dx="23.1683" dy="13.5148"/>
<feGaussianBlur stdDeviation="13.5148"/>
<feComposite in2="hardAlpha" operator="arithmetic" k2="-1" k3="1"/>
<feColorMatrix type="matrix" values="0 0 0 0 0.168627 0 0 0 0 0.180392 0 0 0 0 0.239216 0 0 0 0.9 0"/>
<feBlend mode="multiply" in2="effect1_innerShadow_1040_1533" result="effect2_innerShadow_1040_1533"/>
</filter>
<filter id="filter1_ii_1040_1533" x="62.7375" y="-238.114" width="520.227" height="525.402" filterUnits="userSpaceOnUse" color-interpolation-filters="sRGB">
<feFlood flood-opacity="0" result="BackgroundImageFix"/>
<feBlend mode="normal" in="SourceGraphic" in2="BackgroundImageFix" result="shape"/>
<feColorMatrix in="SourceAlpha" type="matrix" values="0 0 0 0 0 0 0 0 0 0 0 0 0 0 0 0 0 0 127 0" result="hardAlpha"/>
<feOffset dx="-16.136" dy="28.238"/>
<feGaussianBlur stdDeviation="34.289"/>
<feComposite in2="hardAlpha" operator="arithmetic" k2="-1" k3="1"/>
<feColorMatrix type="matrix" values="0 0 0 0 1 0 0 0 0 1 0 0 0 0 1 0 0 0 0.87 0"/>
<feBlend mode="lighten" in2="shape" result="effect1_innerShadow_1040_1533"/>
<feColorMatrix in="SourceAlpha" type="matrix" values="0 0 0 0 0 0 0 0 0 0 0 0 0 0 0 0 0 0 127 0" result="hardAlpha"/>
<feOffset dx="23.1683" dy="13.5148"/>
<feGaussianBlur stdDeviation="13.5148"/>
<feComposite in2="hardAlpha" operator="arithmetic" k2="-1" k3="1"/>
<feColorMatrix type="matrix" values="0 0 0 0 0.168627 0 0 0 0 0.180392 0 0 0 0 0.239216 0 0 0 0.9 0"/>
<feBlend mode="multiply" in2="effect1_innerShadow_1040_1533" result="effect2_innerShadow_1040_1533"/>
</filter>
<filter id="filter2_ii_1040_1533" x="548.077" y="258.134" width="584.548" height="556.57" filterUnits="userSpaceOnUse" color-interpolation-filters="sRGB">
<feFlood flood-opacity="0" result="BackgroundImageFix"/>
<feBlend mode="normal" in="SourceGraphic" in2="BackgroundImageFix" result="shape"/>
<feColorMatrix in="SourceAlpha" type="matrix" values="0 0 0 0 0 0 0 0 0 0 0 0 0 0 0 0 0 0 127 0" result="hardAlpha"/>
<feOffset dx="-16.136" dy="28.238"/>
<feGaussianBlur stdDeviation="34.289"/>
<feComposite in2="hardAlpha" operator="arithmetic" k2="-1" k3="1"/>
<feColorMatrix type="matrix" values="0 0 0 0 1 0 0 0 0 1 0 0 0 0 1 0 0 0 0.87 0"/>
<feBlend mode="lighten" in2="shape" result="effect1_innerShadow_1040_1533"/>
<feColorMatrix in="SourceAlpha" type="matrix" values="0 0 0 0 0 0 0 0 0 0 0 0 0 0 0 0 0 0 127 0" result="hardAlpha"/>
<feOffset dx="23.1683" dy="13.5148"/>
<feGaussianBlur stdDeviation="13.5148"/>
<feComposite in2="hardAlpha" operator="arithmetic" k2="-1" k3="1"/>
<feColorMatrix type="matrix" values="0 0 0 0 0.168627 0 0 0 0 0.180392 0 0 0 0 0.239216 0 0 0 0.9 0"/>
<feBlend mode="multiply" in2="effect1_innerShadow_1040_1533" result="effect2_innerShadow_1040_1533"/>
</filter>
<filter id="filter3_ii_1040_1533" x="347.005" y="-59.6729" width="584.548" height="556.57" filterUnits="userSpaceOnUse" color-interpolation-filters="sRGB">
<feFlood flood-opacity="0" result="BackgroundImageFix"/>
<feBlend mode="normal" in="SourceGraphic" in2="BackgroundImageFix" result="shape"/>
<feColorMatrix in="SourceAlpha" type="matrix" values="0 0 0 0 0 0 0 0 0 0 0 0 0 0 0 0 0 0 127 0" result="hardAlpha"/>
<feOffset dx="-16.136" dy="28.238"/>
<feGaussianBlur stdDeviation="34.289"/>
<feComposite in2="hardAlpha" operator="arithmetic" k2="-1" k3="1"/>
<feColorMatrix type="matrix" values="0 0 0 0 1 0 0 0 0 1 0 0 0 0 1 0 0 0 0.87 0"/>
<feBlend mode="lighten" in2="shape" result="effect1_innerShadow_1040_1533"/>
<feColorMatrix in="SourceAlpha" type="matrix" values="0 0 0 0 0 0 0 0 0 0 0 0 0 0 0 0 0 0 127 0" result="hardAlpha"/>
<feOffset dx="23.1683" dy="13.5148"/>
<feGaussianBlur stdDeviation="13.5148"/>
<feComposite in2="hardAlpha" operator="arithmetic" k2="-1" k3="1"/>
<feColorMatrix type="matrix" values="0 0 0 0 0.168627 0 0 0 0 0.180392 0 0 0 0 0.239216 0 0 0 0.9 0"/>
<feBlend mode="multiply" in2="effect1_innerShadow_1040_1533" result="effect2_innerShadow_1040_1533"/>
</filter>
<filter id="filter4_ii_1040_1533" x="894.976" y="423.541" width="520.227" height="525.402" filterUnits="userSpaceOnUse" color-interpolation-filters="sRGB">
<feFlood flood-opacity="0" result="BackgroundImageFix"/>
<feBlend mode="normal" in="SourceGraphic" in2="BackgroundImageFix" result="shape"/>
<feColorMatrix in="SourceAlpha" type="matrix" values="0 0 0 0 0 0 0 0 0 0 0 0 0 0 0 0 0 0 127 0" result="hardAlpha"/>
<feOffset dx="-16.136" dy="28.238"/>
<feGaussianBlur stdDeviation="34.289"/>
<feComposite in2="hardAlpha" operator="arithmetic" k2="-1" k3="1"/>
<feColorMatrix type="matrix" values="0 0 0 0 1 0 0 0 0 1 0 0 0 0 1 0 0 0 0.87 0"/>
<feBlend mode="lighten" in2="shape" result="effect1_innerShadow_1040_1533"/>
<feColorMatrix in="SourceAlpha" type="matrix" values="0 0 0 0 0 0 0 0 0 0 0 0 0 0 0 0 0 0 127 0" result="hardAlpha"/>
<feOffset dx="23.1683" dy="13.5148"/>
<feGaussianBlur stdDeviation="13.5148"/>
<feComposite in2="hardAlpha" operator="arithmetic" k2="-1" k3="1"/>
<feColorMatrix type="matrix" values="0 0 0 0 0.168627 0 0 0 0 0.180392 0 0 0 0 0.239216 0 0 0 0.9 0"/>
<feBlend mode="multiply" in2="effect1_innerShadow_1040_1533" result="effect2_innerShadow_1040_1533"/>
</filter>
<filter id="filter5_ii_1040_1533" x="430.737" y="-96.5049" width="520.227" height="525.402" filterUnits="userSpaceOnUse" color-interpolation-filters="sRGB">
<feFlood flood-opacity="0" result="BackgroundImageFix"/>
<feBlend mode="normal" in="SourceGraphic" in2="BackgroundImageFix" result="shape"/>
<feColorMatrix in="SourceAlpha" type="matrix" values="0 0 0 0 0 0 0 0 0 0 0 0 0 0 0 0 0 0 127 0" result="hardAlpha"/>
<feOffset dx="-16.136" dy="28.238"/>
<feGaussianBlur stdDeviation="34.289"/>
<feComposite in2="hardAlpha" operator="arithmetic" k2="-1" k3="1"/>
<feColorMatrix type="matrix" values="0 0 0 0 1 0 0 0 0 1 0 0 0 0 1 0 0 0 0.87 0"/>
<feBlend mode="lighten" in2="shape" result="effect1_innerShadow_1040_1533"/>
<feColorMatrix in="SourceAlpha" type="matrix" values="0 0 0 0 0 0 0 0 0 0 0 0 0 0 0 0 0 0 127 0" result="hardAlpha"/>
<feOffset dx="23.1683" dy="13.5148"/>
<feGaussianBlur stdDeviation="13.5148"/>
<feComposite in2="hardAlpha" operator="arithmetic" k2="-1" k3="1"/>
<feColorMatrix type="matrix" values="0 0 0 0 0.168627 0 0 0 0 0.180392 0 0 0 0 0.239216 0 0 0 0.9 0"/>
<feBlend mode="multiply" in2="effect1_innerShadow_1040_1533" result="effect2_innerShadow_1040_1533"/>
</filter>
<filter id="filter6_ii_1040_1533" x="800.316" y="127.869" width="222.361" height="211.294" filterUnits="userSpaceOnUse" color-interpolation-filters="sRGB">
<feFlood flood-opacity="0" result="BackgroundImageFix"/>
<feBlend mode="normal" in="SourceGraphic" in2="BackgroundImageFix" result="shape"/>
<feColorMatrix in="SourceAlpha" type="matrix" values="0 0 0 0 0 0 0 0 0 0 0 0 0 0 0 0 0 0 127 0" result="hardAlpha"/>
<feOffset dx="-16.136" dy="28.238"/>
<feGaussianBlur stdDeviation="34.289"/>
<feComposite in2="hardAlpha" operator="arithmetic" k2="-1" k3="1"/>
<feColorMatrix type="matrix" values="0 0 0 0 1 0 0 0 0 1 0 0 0 0 1 0 0 0 0.87 0"/>
<feBlend mode="lighten" in2="shape" result="effect1_innerShadow_1040_1533"/>
<feColorMatrix in="SourceAlpha" type="matrix" values="0 0 0 0 0 0 0 0 0 0 0 0 0 0 0 0 0 0 127 0" result="hardAlpha"/>
<feOffset dx="23.1683" dy="13.5148"/>
<feGaussianBlur stdDeviation="13.5148"/>
<feComposite in2="hardAlpha" operator="arithmetic" k2="-1" k3="1"/>
<feColorMatrix type="matrix" values="0 0 0 0 0.168627 0 0 0 0 0.180392 0 0 0 0 0.239216 0 0 0 0.9 0"/>
<feBlend mode="multiply" in2="effect1_innerShadow_1040_1533" result="effect2_innerShadow_1040_1533"/>
</filter>
<filter id="filter7_ii_1040_1533" x="867.73" y="763.13" width="222.361" height="211.294" filterUnits="userSpaceOnUse" color-interpolation-filters="sRGB">
<feFlood flood-opacity="0" result="BackgroundImageFix"/>
<feBlend mode="normal" in="SourceGraphic" in2="BackgroundImageFix" result="shape"/>
<feColorMatrix in="SourceAlpha" type="matrix" values="0 0 0 0 0 0 0 0 0 0 0 0 0 0 0 0 0 0 127 0" result="hardAlpha"/>
<feOffset dx="-16.136" dy="28.238"/>
<feGaussianBlur stdDeviation="34.289"/>
<feComposite in2="hardAlpha" operator="arithmetic" k2="-1" k3="1"/>
<feColorMatrix type="matrix" values="0 0 0 0 1 0 0 0 0 1 0 0 0 0 1 0 0 0 0.87 0"/>
<feBlend mode="lighten" in2="shape" result="effect1_innerShadow_1040_1533"/>
<feColorMatrix in="SourceAlpha" type="matrix" values="0 0 0 0 0 0 0 0 0 0 0 0 0 0 0 0 0 0 127 0" result="hardAlpha"/>
<feOffset dx="23.1683" dy="13.5148"/>
<feGaussianBlur stdDeviation="13.5148"/>
<feComposite in2="hardAlpha" operator="arithmetic" k2="-1" k3="1"/>
<feColorMatrix type="matrix" values="0 0 0 0 0.168627 0 0 0 0 0.180392 0 0 0 0 0.239216 0 0 0 0.9 0"/>
<feBlend mode="multiply" in2="effect1_innerShadow_1040_1533" result="effect2_innerShadow_1040_1533"/>
</filter>
<filter id="filter8_ii_1040_1533" x="732.777" y="631.894" width="117.361" height="109.793" filterUnits="userSpaceOnUse" color-interpolation-filters="sRGB">
<feFlood flood-opacity="0" result="BackgroundImageFix"/>
<feBlend mode="normal" in="SourceGraphic" in2="BackgroundImageFix" result="shape"/>
<feColorMatrix in="SourceAlpha" type="matrix" values="0 0 0 0 0 0 0 0 0 0 0 0 0 0 0 0 0 0 127 0" result="hardAlpha"/>
<feOffset dx="-11.0356" dy="19.3122"/>
<feGaussianBlur stdDeviation="23.4506"/>
<feComposite in2="hardAlpha" operator="arithmetic" k2="-1" k3="1"/>
<feColorMatrix type="matrix" values="0 0 0 0 1 0 0 0 0 1 0 0 0 0 1 0 0 0 0.87 0"/>
<feBlend mode="lighten" in2="shape" result="effect1_innerShadow_1040_1533"/>
<feColorMatrix in="SourceAlpha" type="matrix" values="0 0 0 0 0 0 0 0 0 0 0 0 0 0 0 0 0 0 127 0" result="hardAlpha"/>
<feOffset dx="15.845" dy="9.24291"/>
<feGaussianBlur stdDeviation="9.24291"/>
<feComposite in2="hardAlpha" operator="arithmetic" k2="-1" k3="1"/>
<feColorMatrix type="matrix" values="0 0 0 0 0.168627 0 0 0 0 0.180392 0 0 0 0 0.239216 0 0 0 0.9 0"/>
<feBlend mode="multiply" in2="effect1_innerShadow_1040_1533" result="effect2_innerShadow_1040_1533"/>
</filter>
<linearGradient id="paint0_linear_1040_1533" x1="1477.25" y1="1241.16" x2="1477.25" y2="-341.165" gradientUnits="userSpaceOnUse">
<stop/>
<stop offset="1" stop-opacity="0"/>
</linearGradient>
<radialGradient id="paint1_radial_1040_1533" cx="0" cy="0" r="1" gradientUnits="userSpaceOnUse" gradientTransform="translate(2268.75 1157.61) rotate(-120.496) scale(178.832 82.7832)">
<stop stop-color="#949494"/>
<stop offset="0.635171" stop-color="#181818"/>
<stop offset="1" stop-color="#1D1D1D"/>
</radialGradient>
<radialGradient id="paint2_radial_1040_1533" cx="0" cy="0" r="1" gradientUnits="userSpaceOnUse" gradientTransform="translate(1355.54 340.899) rotate(-120.496) scale(178.832 82.7832)">
<stop stop-color="#949494"/>
<stop offset="0.635171" stop-color="#181818"/>
<stop offset="1" stop-color="#1D1D1D"/>
</radialGradient>
<radialGradient id="paint3_radial_1040_1533" cx="0" cy="0" r="1" gradientUnits="userSpaceOnUse" gradientTransform="translate(1840.87 837.147) rotate(-120.496) scale(178.832 82.7832)">
<stop stop-color="#949494"/>
<stop offset="0.635171" stop-color="#181818"/>
<stop offset="1" stop-color="#1D1D1D"/>
</radialGradient>
<radialGradient id="paint4_radial_1040_1533" cx="0" cy="0" r="1" gradientUnits="userSpaceOnUse" gradientTransform="translate(1639.8 519.34) rotate(-120.496) scale(178.832 82.7832)">
<stop stop-color="#949494"/>
<stop offset="0.635171" stop-color="#181818"/>
<stop offset="1" stop-color="#1D1D1D"/>
</radialGradient>
<radialGradient id="paint5_radial_1040_1533" cx="0" cy="0" r="1" gradientUnits="userSpaceOnUse" gradientTransform="translate(115.373 341.692) rotate(59.5044) scale(178.832 82.7832)">
<stop stop-color="#949494"/>
<stop offset="0.635171" stop-color="#181818"/>
<stop offset="1" stop-color="#1D1D1D"/>
</radialGradient>
<radialGradient id="paint6_radial_1040_1533" cx="0" cy="0" r="1" gradientUnits="userSpaceOnUse" gradientTransform="translate(-348.866 -178.354) rotate(59.5044) scale(178.832 82.7832)">
<stop stop-color="#949494"/>
<stop offset="0.635171" stop-color="#181818"/>
<stop offset="1" stop-color="#1D1D1D"/>
</radialGradient>
<radialGradient id="paint7_radial_1040_1533" cx="0" cy="0" r="1" gradientUnits="userSpaceOnUse" gradientTransform="translate(770.398 -132.324) rotate(133.962) scale(34.1409 33.1022)">
<stop stop-color="#949494"/>
<stop offset="0.635171" stop-color="#181818"/>
<stop offset="1" stop-color="#1D1D1D"/>
</radialGradient>
<radialGradient id="paint8_radial_1040_1533" cx="0" cy="0" r="1" gradientUnits="userSpaceOnUse" gradientTransform="translate(1112.98 1206.38) rotate(-46.0382) scale(34.1409 33.1022)">
<stop stop-color="#949494"/>
<stop offset="0.635171" stop-color="#181818"/>
<stop offset="1" stop-color="#1D1D1D"/>
</radialGradient>
<radialGradient id="paint9_radial_1040_1533" cx="0" cy="0" r="1" gradientUnits="userSpaceOnUse" gradientTransform="translate(576.972 573.578) rotate(88.9618) scale(23.3493 22.6389)">
<stop stop-color="#949494"/>
<stop offset="0.635171" stop-color="#181818"/>
<stop offset="1" stop-color="#1D1D1D"/>
</radialGradient>
</defs>
</svg>
