<svg width="40" height="40" viewBox="0 0 40 40" fill="none" xmlns="http://www.w3.org/2000/svg">
<rect width="40" height="40" rx="16" fill="#18181C"/>
<path d="M19.5 11C17.1915 11 16.9021 11.0098 15.9955 11.0511C15.0907 11.0924 14.4728 11.2361 13.9322 11.4462C13.3732 11.6634 12.8992 11.9541 12.4267 12.4266C11.9541 12.8992 11.6634 13.3732 11.4462 13.9322C11.2361 14.4728 11.0924 15.0907 11.0511 15.9955C11.0098 16.9021 11 17.1915 11 19.5C11 21.8085 11.0098 22.0979 11.0511 23.0045C11.0924 23.9093 11.2361 24.5272 11.4462 25.0678C11.6635 25.6268 11.9541 26.1008 12.4267 26.5734C12.8992 27.0459 13.3732 27.3366 13.9322 27.5538C14.4728 27.7639 15.0907 27.9076 15.9955 27.9489C16.9021 27.9902 17.1915 28 19.5 28C21.8085 28 22.0979 27.9902 23.0045 27.9489C23.9093 27.9076 24.5272 27.7639 25.0678 27.5538C25.6268 27.3366 26.1008 27.0459 26.5734 26.5734C27.0459 26.1008 27.3366 25.6268 27.5538 25.0678C27.7639 24.5272 27.9076 23.9093 27.9489 23.0045C27.9902 22.0979 28 21.8085 28 19.5C28 17.1915 27.9902 16.9021 27.9489 15.9955C27.9076 15.0907 27.7639 14.4728 27.5538 13.9322C27.3366 13.3732 27.0459 12.8992 26.5734 12.4266C26.1008 11.9541 25.6268 11.6634 25.0678 11.4462C24.5272 11.2361 23.9093 11.0924 23.0045 11.0511C22.0979 11.0098 21.8085 11 19.5 11ZM19.5 12.5315C21.7696 12.5315 22.0384 12.5402 22.9347 12.5811C23.7635 12.6189 24.2135 12.7573 24.513 12.8738C24.9098 13.028 25.193 13.2121 25.4904 13.5096C25.7879 13.807 25.972 14.0902 26.1262 14.4869C26.2427 14.7865 26.3811 15.2365 26.4189 16.0653C26.4598 16.9616 26.4685 17.2304 26.4685 19.5C26.4685 21.7696 26.4598 22.0384 26.4189 22.9347C26.3811 23.7635 26.2427 24.2135 26.1262 24.513C25.972 24.9098 25.7879 25.193 25.4904 25.4904C25.193 25.7879 24.9098 25.972 24.5131 26.1262C24.2135 26.2427 23.7635 26.3811 22.9347 26.4189C22.0386 26.4598 21.7698 26.4685 19.5 26.4685C17.2302 26.4685 16.9615 26.4598 16.0653 26.4189C15.2365 26.3811 14.7865 26.2427 14.487 26.1262C14.0902 25.972 13.807 25.7879 13.5096 25.4904C13.2122 25.193 13.028 24.9098 12.8738 24.5131C12.7573 24.2135 12.6189 23.7635 12.5811 22.9347C12.5402 22.0384 12.5315 21.7696 12.5315 19.5C12.5315 17.2304 12.5402 16.9616 12.5811 16.0653C12.6189 15.2365 12.7573 14.7865 12.8738 14.487C13.028 14.0902 13.2122 13.807 13.5096 13.5096C13.807 13.2121 14.0902 13.028 14.4869 12.8738C14.7865 12.7573 15.2365 12.6189 16.0653 12.5811C16.9616 12.5402 17.2304 12.5315 19.5 12.5315" fill="white"/>
<path d="M19.5001 22.3333C17.9353 22.3333 16.6668 21.0648 16.6668 19.5C16.6668 17.9351 17.9353 16.6666 19.5001 16.6666C21.0649 16.6666 22.3335 17.9351 22.3335 19.5C22.3335 21.0648 21.0649 22.3333 19.5001 22.3333ZM19.5001 15.1351C17.0895 15.1351 15.1353 17.0893 15.1353 19.5C15.1353 21.9106 17.0895 23.8648 19.5001 23.8648C21.9108 23.8648 23.865 21.9106 23.865 19.5C23.865 17.0893 21.9108 15.1351 19.5001 15.1351V15.1351ZM25.0575 14.9626C25.0575 15.526 24.6008 15.9826 24.0374 15.9826C23.4741 15.9826 23.0174 15.526 23.0174 14.9626C23.0174 14.3993 23.4741 13.9426 24.0374 13.9426C24.6008 13.9426 25.0575 14.3993 25.0575 14.9626" fill="white"/>
</svg>
