<svg width="40" height="40" viewBox="0 0 40 40" fill="none" xmlns="http://www.w3.org/2000/svg">
<rect width="40" height="40" rx="16" fill="#18181C"/>
<path d="M15.4188 27.4083V17.6865H12.1903V27.4083H15.4191H15.4188ZM13.8052 16.3593C14.9308 16.3593 15.6316 15.6128 15.6316 14.6799C15.6105 13.7257 14.9308 13 13.8266 13C12.7217 13 12 13.7257 12 14.6798C12 15.6127 12.7005 16.3593 13.7841 16.3593H13.805L13.8052 16.3593ZM17.2058 27.4083H20.4341V21.9798C20.4341 21.6896 20.4552 21.3986 20.5404 21.1914C20.7737 20.6106 21.3049 20.0094 22.197 20.0094C23.3649 20.0094 23.8324 20.9009 23.8324 22.2079V27.4083H27.0606V21.8341C27.0606 18.8481 25.4681 17.4585 23.344 17.4585C21.6026 17.4585 20.8378 18.4327 20.4128 19.0962H20.4343V17.6868H17.206C17.2481 18.5988 17.2057 27.4086 17.2057 27.4086L17.2058 27.4083Z" fill="white"/>
</svg>
